<?xml version="1.0" standalone="no"?>
<!DOCTYPE svg PUBLIC "-//W3C//DTD SVG 20010904//EN"
 "http://www.w3.org/TR/2001/REC-SVG-20010904/DTD/svg10.dtd">
<svg version="1.0" xmlns="http://www.w3.org/2000/svg"
 width="902.000000pt" height="903.000000pt" viewBox="0 0 902.000000 903.000000"
 preserveAspectRatio="xMidYMid meet">
<metadata>
Created by potrace 1.16, written by Peter Selinger 2001-2019
</metadata>
<g transform="translate(0.000000,903.000000) scale(0.100000,-0.100000)"
fill="#000000" stroke="none">
<path d="M4175 9009 c-787 -58 -1559 -330 -2210 -777 -99 -67 -210 -150 -241
-177 -6 -5 -29 -23 -50 -40 -279 -215 -647 -612 -869 -935 -634 -922 -905
-2036 -765 -3139 104 -813 432 -1590 941 -2226 311 -389 642 -693 1046 -960
194 -128 248 -159 468 -270 654 -330 1369 -489 2120 -472 470 11 850 75 1294
218 262 84 629 247 846 375 1107 653 1862 1672 2145 2897 123 531 147 1113 69
1657 -211 1472 -1142 2748 -2484 3404 -619 303 -1307 459 -1999 455 -111 -1
-250 -5 -311 -10z m680 -69 c458 -39 895 -141 1320 -310 67 -27 103 -42 263
-116 317 -146 743 -430 1020 -681 41 -37 84 -76 94 -85 19 -16 14 -21 -139
-134 -194 -145 -380 -282 -538 -399 -66 -48 -192 -141 -280 -206 -316 -234
-364 -269 -371 -269 -4 0 -44 26 -88 58 -370 265 -797 432 -1276 498 -189 27
-548 24 -740 -5 -432 -65 -805 -206 -1150 -435 -114 -76 -286 -207 -301 -229
-9 -12 19 -32 -468 318 -237 171 -442 317 -454 325 -95 63 -437 313 -437 319
0 9 165 169 266 257 118 103 314 256 424 330 101 68 336 214 344 214 2 0 37
19 78 42 80 46 336 165 438 205 414 161 870 268 1280 302 151 12 575 13 715 1z
m55 -1719 c484 -74 934 -271 1320 -577 109 -87 313 -292 413 -416 464 -578
672 -1313 581 -2052 -66 -534 -301 -1065 -643 -1450 -76 -87 -260 -265 -338
-329 -375 -308 -848 -516 -1343 -592 -142 -22 -475 -30 -626 -16 -645 59
-1226 327 -1675 771 -263 260 -447 523 -588 842 -402 909 -287 1944 303 2743
106 144 118 158 266 306 145 145 245 227 420 344 369 245 796 398 1245 444
149 16 510 6 665 -18z m3579 -743 c55 -112 124 -267 155 -345 445 -1138 399
-2423 -125 -3523 -42 -89 -67 -129 -76 -126 -12 5 -776 548 -964 685 -42 31
-144 104 -227 164 l-151 107 25 67 c71 188 126 398 156 588 25 166 35 513 19
680 -28 295 -101 581 -212 838 l-38 88 22 19 c12 10 81 61 152 114 157 116
387 286 510 376 50 37 194 143 320 236 289 214 317 234 327 234 4 0 52 -91
107 -202z m-7167 -526 l576 -412 -38 -113 c-97 -280 -140 -521 -147 -834 -9
-363 31 -647 138 -971 17 -51 29 -94 28 -96 -2 -1 -31 -23 -64 -47 -75 -57
-114 -85 -410 -303 -132 -98 -251 -186 -265 -196 -519 -385 -600 -444 -605
-438 -13 12 -113 237 -159 356 -442 1138 -401 2403 114 3499 l52 111 102 -72
c55 -40 361 -258 678 -484z m1373 -3574 c559 -478 1313 -720 2050 -658 496 43
979 220 1393 513 48 33 108 78 134 100 26 21 50 37 55 36 4 -2 93 -65 197
-139 103 -74 198 -142 209 -150 39 -27 380 -270 492 -351 61 -43 185 -133 278
-199 92 -67 167 -125 167 -129 0 -4 -33 -39 -73 -77 -731 -693 -1578 -1094
-2577 -1220 -171 -22 -669 -30 -853 -15 -1065 90 -2007 518 -2764 1255 -57 54
-103 103 -103 107 0 6 225 176 584 439 124 91 367 270 576 425 85 63 160 115
165 115 6 0 37 -23 70 -52z"/>
<path d="M3780 8589 c-70 -28 -95 -90 -104 -251 -14 -264 -17 -480 -6 -513 23
-68 109 -88 180 -41 29 19 43 39 60 82 20 56 21 92 0 79 -5 -3 -10 -15 -10
-26 0 -47 -67 -146 -86 -127 -7 8 9 788 16 788 4 0 19 -9 33 -21 53 -41 58
-131 17 -299 -21 -91 -26 -180 -10 -180 6 0 10 16 10 35 0 20 11 87 25 151 39
181 31 264 -30 312 -30 24 -56 27 -95 11z"/>
<path d="M6193 8389 c-48 -14 -42 -32 7 -24 39 7 40 6 31 -17 -14 -35 -44
-103 -96 -213 l-47 -100 -14 27 c-33 63 -155 88 -241 48 -124 -56 -214 -263
-159 -368 43 -83 156 -111 234 -59 l42 27 0 -23 c0 -70 117 -125 176 -83 26
20 13 30 -20 15 -14 -7 -29 -9 -33 -5 -8 8 -3 20 157 366 152 329 156 356 55
401 -45 21 -47 21 -92 8z m-185 -295 c28 -8 52 -52 52 -94 0 -17 -22 -77 -49
-133 -56 -117 -107 -174 -164 -184 -46 -7 -67 9 -67 51 0 105 135 366 189 366
9 0 26 -3 39 -6z"/>
<path d="M4475 8310 c-16 -4 -49 -8 -72 -9 -35 -1 -43 -5 -43 -19 0 -31 -12
-33 -38 -10 -20 19 -35 23 -90 23 -57 0 -74 -4 -114 -29 -133 -85 -172 -333
-66 -419 68 -55 186 -39 234 32 18 27 24 31 24 16 -1 -28 -19 -168 -23 -171
-2 -2 -31 6 -66 16 -115 36 -198 23 -226 -36 -15 -33 -15 -37 2 -71 14 -26 31
-40 59 -51 77 -27 229 3 289 57 13 12 41 20 77 23 36 3 65 11 78 23 30 27 15
35 -27 14 -37 -19 -73 -25 -73 -12 0 3 11 29 25 57 20 42 29 91 50 271 14 121
28 239 31 263 3 23 4 41 2 41 -2 -1 -16 -5 -33 -9z m-196 -41 c51 -18 65 -56
56 -163 -8 -105 -25 -154 -72 -213 -29 -36 -40 -43 -69 -43 -28 0 -36 5 -45
27 -25 67 -4 276 37 356 26 50 39 55 93 36z m-75 -549 c78 -26 78 -27 61 -60
-22 -42 -63 -60 -138 -60 -73 0 -117 24 -117 64 0 69 84 94 194 56z"/>
<path d="M4611 8291 c-31 -24 -10 -38 24 -15 14 9 28 15 30 12 3 -2 -17 -105
-44 -229 -27 -123 -48 -225 -46 -227 1 -2 34 -6 73 -9 l70 -6 11 39 c5 22 20
84 32 139 41 193 135 312 216 273 23 -11 29 -20 31 -56 2 -30 -3 -53 -16 -75
-11 -18 -36 -59 -56 -91 -38 -64 -46 -96 -21 -96 8 0 15 8 15 18 0 9 23 51 50
92 59 88 74 132 60 179 -12 45 -36 60 -90 61 -52 0 -89 -21 -125 -70 l-25 -34
0 26 c0 16 -12 39 -31 57 -26 27 -38 31 -82 31 -35 0 -60 -7 -76 -19z"/>
<path d="M2600 8266 c-89 -23 -277 -107 -380 -171 -128 -79 -239 -190 -270
-271 -18 -48 -21 -74 -18 -135 4 -64 9 -82 36 -121 17 -25 47 -53 66 -62 63
-30 236 -14 236 22 0 9 -6 12 -17 7 -10 -4 -45 -11 -78 -17 -111 -19 -179 18
-211 114 -50 152 56 316 296 459 39 23 73 39 76 36 5 -5 160 -703 178 -800 9
-49 -15 -101 -55 -117 -16 -7 -29 -19 -29 -26 0 -21 10 -18 67 22 69 47 126
132 143 213 16 76 7 135 -81 511 -32 140 -59 260 -59 267 0 19 125 53 196 53
77 0 121 -16 157 -59 52 -62 57 -142 15 -225 -25 -50 -114 -138 -157 -155 -17
-8 -31 -17 -31 -22 0 -14 17 -11 59 10 29 15 46 18 72 12 85 -21 120 -52 139
-122 23 -85 -33 -174 -142 -229 -34 -16 -67 -30 -75 -30 -7 0 -13 -7 -13 -15
0 -8 3 -15 6 -15 4 0 50 23 104 51 122 64 204 127 230 179 29 56 27 126 -5
172 -33 48 -77 62 -173 55 l-75 -6 36 37 c50 51 77 115 77 182 0 54 -25 126
-53 154 -48 48 -167 67 -267 42z"/>
<path d="M5223 8229 c-51 -25 -99 -77 -127 -138 -16 -36 -21 -66 -21 -136 0
-80 3 -94 23 -120 33 -42 70 -63 119 -71 49 -7 86 5 126 41 14 14 28 25 30 25
3 0 7 -13 10 -30 12 -56 106 -88 172 -58 25 11 34 28 15 28 -5 0 -21 -5 -35
-12 -14 -6 -27 -9 -30 -7 -2 3 29 106 70 229 41 123 73 225 72 226 -1 1 -36 4
-78 8 l-76 7 -9 -33 -10 -32 -22 37 c-12 21 -33 42 -47 47 -46 17 -136 12
-182 -11z m178 -19 c25 -14 49 -62 49 -97 0 -39 -46 -180 -75 -229 -25 -43
-89 -94 -119 -94 -9 0 -26 5 -37 10 -60 33 30 349 114 400 37 23 42 24 68 10z"/>
<path d="M3315 8178 c-136 -49 -202 -194 -161 -358 28 -115 107 -163 227 -140
78 15 139 56 171 115 27 50 37 105 18 105 -5 0 -13 -12 -16 -27 -20 -81 -67
-135 -136 -153 -32 -9 -44 -8 -68 7 -30 17 -43 45 -56 116 -5 32 -4 37 12 37
33 1 156 58 186 87 61 58 54 174 -12 208 -33 17 -121 18 -165 3z m157 -35 c26
-23 39 -78 27 -113 -13 -36 -61 -73 -128 -100 -80 -31 -91 -28 -91 23 1 95 41
185 94 207 28 12 75 4 98 -17z"/>
<path d="M6415 7926 c-82 -38 -160 -145 -179 -245 -20 -109 97 -214 235 -212
33 0 72 7 88 15 37 19 91 65 91 77 0 11 -27 12 -32 1 -1 -4 -21 -21 -42 -37
-34 -26 -48 -30 -104 -30 -57 0 -66 3 -88 28 -15 18 -24 41 -24 62 0 35 27
115 39 115 3 0 28 -7 55 -15 72 -22 173 -20 213 5 45 27 66 73 60 129 -6 55
-32 80 -112 110 -73 28 -137 27 -200 -3z m258 -67 c29 -31 33 -52 18 -92 -25
-66 -91 -86 -201 -61 -38 8 -72 19 -75 23 -2 5 14 34 37 66 30 42 54 63 92 81
60 28 90 24 129 -17z"/>
<path d="M4330 6553 c-360 -37 -679 -152 -981 -354 -187 -126 -428 -370 -551
-560 -157 -243 -258 -500 -310 -789 -29 -158 -31 -485 -5 -645 62 -377 197
-682 431 -975 201 -252 472 -461 766 -590 175 -77 347 -126 551 -156 178 -26
500 -16 674 20 508 107 938 377 1241 781 215 287 350 625 394 988 16 127 8
472 -14 587 -50 267 -144 514 -277 730 -326 527 -886 882 -1504 955 -117 13
-323 18 -415 8z m1554 -915 c8 -13 17 -38 21 -55 4 -18 8 -33 9 -33 2 0 30 14
64 31 84 41 127 48 141 20 25 -46 24 -52 -104 -486 -15 -49 -31 -102 -35 -117
-9 -28 -8 -28 37 -28 35 0 44 -3 40 -14 -3 -8 -9 -30 -12 -49 -6 -31 -11 -35
-48 -41 -32 -5 -44 -3 -53 9 -15 20 -29 19 -73 -5 -32 -17 -118 -44 -451 -139
-68 -19 -218 -46 -425 -75 -176 -25 -421 -64 -545 -86 -124 -22 -364 -66 -535
-96 -170 -31 -443 -80 -605 -109 -234 -42 -309 -52 -358 -48 l-62 6 0 40 0 40
38 -7 c36 -5 41 -3 106 63 72 72 71 71 75 188 1 51 2 53 61 98 65 50 63 44 38
128 l-11 37 -67 0 -66 0 4 33 c3 25 13 38 50 62 39 26 50 41 79 109 18 44 36
83 40 87 5 5 161 1 348 -7 l340 -15 30 -28 c26 -24 34 -27 60 -20 38 12 558
147 915 238 151 39 308 75 349 81 59 8 123 32 300 109 124 55 241 100 258 100
23 1 37 -5 47 -21z m-444 -1175 c-1 -48 16 -27 -248 -312 -23 -25 -91 -116
-149 -201 -59 -85 -120 -172 -136 -193 -16 -21 -27 -40 -24 -43 3 -3 64 -13
136 -22 107 -13 131 -19 131 -33 0 -18 33 -21 -395 36 -104 13 -379 49 -610
80 -231 30 -474 61 -540 70 -125 16 -566 73 -771 100 -182 23 -194 25 -194 41
0 18 -15 18 201 -11 101 -14 186 -25 189 -25 3 1 -4 8 -15 18 -41 34 -65 76
-84 141 -24 84 -33 133 -23 127 5 -3 53 -12 108 -21 85 -14 126 -14 289 -5
407 23 642 57 1640 234 216 39 327 54 398 55 l97 1 0 -37z m-2123 -1028 c32
-9 73 -62 73 -94 0 -31 -24 -70 -36 -58 -5 4 -3 17 4 27 19 31 14 50 -19 81
-22 20 -41 29 -65 29 -51 0 -56 -35 -15 -114 37 -72 37 -76 10 -110 -17 -21
-29 -26 -66 -26 -39 0 -50 5 -84 39 -46 45 -53 95 -19 126 19 18 20 17 20 -3
0 -11 -4 -24 -10 -27 -36 -22 36 -115 88 -115 32 0 62 22 62 46 0 8 -13 38
-30 67 -34 61 -38 97 -12 119 31 27 44 29 99 13z m2265 -77 c-6 -7 -40 -29
-77 -48 l-67 -35 6 -54 c9 -75 18 -89 39 -58 9 14 36 33 60 42 40 15 47 15 80
2 68 -29 100 -145 58 -213 -22 -37 -76 -64 -126 -64 -27 0 -44 8 -67 31 -22
22 -28 33 -20 41 8 8 18 2 37 -21 36 -42 81 -43 129 0 58 51 58 143 -1 189
-50 39 -130 11 -154 -54 -7 -20 -18 -36 -24 -36 -9 0 -49 200 -42 206 1 1 40
22 87 47 82 45 104 51 82 25z m-2009 -115 c4 -3 0 -14 -8 -23 -14 -15 -11 -16
40 -12 50 4 56 2 85 -26 48 -49 41 -76 -44 -177 -70 -82 -73 -85 -85 -85 -19
0 -12 11 46 79 31 36 63 74 71 83 38 46 0 108 -65 108 -53 0 -108 -37 -170
-113 -35 -44 -59 -65 -65 -59 -6 6 24 50 83 121 92 110 100 117 112 104z
m1441 -125 c86 -38 91 -279 9 -370 -24 -27 -88 -41 -126 -28 -43 14 -66 49
-79 120 -14 74 2 179 35 227 37 56 105 77 161 51z m-1074 -33 c35 -18 50 -43
50 -84 0 -21 -5 -31 -15 -31 -11 0 -14 7 -9 25 5 19 -1 32 -25 56 -28 28 -37
31 -75 27 -128 -15 -193 -195 -85 -235 34 -13 89 -2 109 22 14 17 40 20 40 6
0 -5 -12 -18 -27 -29 -86 -60 -203 -17 -203 75 0 129 134 223 240 168z m802
-25 c26 -32 27 -98 2 -137 -8 -12 -52 -46 -100 -75 -81 -49 -144 -106 -144
-130 0 -7 34 -9 115 -4 72 5 115 4 115 -2 0 -16 -21 -20 -143 -21 -71 -1 -117
2 -117 8 0 21 22 67 43 89 12 13 59 46 104 73 45 28 91 62 103 76 26 33 26 73
-1 107 -17 21 -29 26 -66 26 -37 0 -50 -5 -73 -30 -15 -16 -30 -43 -33 -60 -7
-34 -27 -41 -27 -9 0 32 30 88 53 101 59 31 139 25 169 -12z m-535 -40 c8 0
28 -13 44 -29 24 -25 29 -38 29 -80 0 -27 -5 -53 -10 -56 -6 -3 -57 3 -115 15
-58 12 -109 18 -115 15 -14 -9 -12 -77 3 -96 40 -53 125 -51 168 3 9 12 22 19
30 16 10 -3 3 -15 -22 -41 -32 -32 -43 -37 -82 -37 -60 0 -92 13 -114 47 -35
52 -10 155 50 212 26 24 81 42 105 35 8 -2 20 -4 29 -4z"/>
<path d="M5695 5589 c-251 -113 -346 -151 -400 -156 -39 -4 -59 -11 -65 -23
-5 -10 -30 -75 -56 -146 -25 -71 -70 -196 -100 -278 -30 -82 -52 -151 -50
-153 5 -6 101 34 211 87 251 122 411 290 418 440 l2 52 118 62 118 61 -5 38
c-10 82 -39 85 -191 16z"/>
<path d="M5984 5562 l-79 -39 -13 -72 c-15 -79 -79 -314 -118 -434 -14 -43
-24 -80 -23 -81 6 -5 193 34 201 42 3 4 42 131 87 283 71 242 79 281 70 308
-7 18 -18 31 -28 31 -9 0 -53 -17 -97 -38z"/>
<path d="M5795 5464 c-44 -25 -90 -50 -102 -56 -19 -9 -23 -19 -23 -59 0 -59
-49 -157 -112 -225 -98 -105 -275 -214 -475 -294 -46 -18 -83 -36 -83 -41 0
-12 -6 -12 140 10 69 11 229 43 356 73 l230 53 57 190 c69 234 99 352 95 375
-3 15 -14 11 -83 -26z"/>
<path d="M4798 5317 c-218 -56 -401 -106 -407 -112 -9 -10 -113 -296 -126
-348 l-7 -27 88 0 c99 0 241 -20 353 -48 78 -20 110 -18 236 17 66 18 44 -26
190 381 40 113 76 213 80 223 4 9 3 17 -1 16 -5 0 -188 -46 -406 -102z"/>
<path d="M4245 5175 c-44 -12 -119 -33 -168 -45 -48 -13 -85 -26 -81 -29 3 -3
40 -10 82 -16 75 -10 77 -11 99 -50 29 -52 29 -55 -7 -55 l-30 0 37 -72 c43
-87 41 -84 53 -72 7 7 130 347 130 360 0 8 -38 1 -115 -21z"/>
<path d="M3268 5174 c-3 -5 -9 -28 -13 -52 l-7 -42 36 21 c35 21 45 21 335 18
l298 -4 -16 21 c-14 18 -30 22 -121 27 -230 14 -507 20 -512 11z"/>
<path d="M3394 5003 c4 -16 11 -44 17 -64 l9 -36 114 56 c63 31 115 59 115 64
1 4 -58 7 -130 7 l-131 0 6 -27z"/>
<path d="M3781 4936 c-34 -136 -41 -127 97 -120 64 4 119 8 121 10 2 2 -14 44
-35 94 l-38 90 -41 0 c-22 0 -49 3 -61 6 -19 5 -23 -2 -43 -80z"/>
<path d="M3542 4949 l-102 -51 0 -51 0 -50 137 7 c75 4 139 9 141 11 6 6 -61
185 -69 185 -3 0 -51 -23 -107 -51z"/>
<path d="M3997 4913 c19 -49 37 -90 39 -92 4 -5 147 -1 152 3 1 2 -12 39 -29
83 l-31 80 -52 7 c-28 3 -65 6 -83 6 l-31 0 35 -87z"/>
<path d="M3748 4702 c-23 -3 -28 -10 -38 -55 -6 -29 -14 -60 -17 -71 -5 -17
-1 -18 53 -11 67 8 104 27 104 54 0 25 -41 84 -60 85 -8 1 -27 0 -42 -2z"/>
<path d="M3608 4693 c-35 -4 -38 -7 -53 -58 -23 -81 -29 -115 -18 -115 5 0 32
7 60 15 l50 15 12 61 c7 34 15 67 18 75 5 14 5 14 -69 7z"/>
<path d="M4912 3090 c-48 -30 -72 -89 -72 -181 0 -96 19 -145 62 -164 83 -34
158 60 158 198 0 133 -66 198 -148 147z"/>
<path d="M4099 2975 c-33 -21 -55 -52 -46 -61 2 -2 47 -12 100 -22 82 -16 97
-16 102 -4 33 87 -71 146 -156 87z"/>
<path d="M2451 1808 c-151 -27 -281 -174 -289 -328 -4 -74 15 -128 67 -191 43
-51 47 -30 6 32 -64 98 -68 161 -14 275 49 104 148 178 257 191 67 8 154 -19
200 -62 35 -32 37 -37 37 -97 0 -76 -22 -125 -107 -240 -78 -105 -259 -287
-406 -408 -23 -19 -42 -38 -42 -42 0 -4 32 -24 71 -44 l71 -35 102 98 c199
192 232 223 296 274 77 62 274 193 368 246 87 49 246 103 302 103 63 0 113
-16 140 -45 19 -20 22 -32 17 -65 -4 -35 -3 -41 11 -38 12 2 18 16 20 47 4 51
-19 83 -83 112 -129 60 -367 -31 -680 -258 -47 -35 -88 -63 -91 -63 -4 0 5 15
18 33 42 56 86 146 99 202 25 110 -34 207 -164 269 -77 37 -136 47 -206 34z"/>
<path d="M6424 1585 c-55 -31 -61 -37 -56 -61 4 -24 3 -25 -16 -15 -71 38
-187 -26 -229 -126 -20 -50 -17 -163 8 -228 41 -110 116 -161 199 -136 58 17
108 65 123 118 l13 46 26 -94 25 -94 -71 -8 c-133 -15 -208 -72 -191 -146 27
-123 269 -47 350 108 8 17 23 31 32 31 25 0 81 39 88 62 4 11 2 25 -4 31 -8 8
-11 7 -11 -5 0 -16 -53 -68 -69 -68 -4 0 -7 30 -7 68 1 55 -12 112 -68 310
-39 133 -72 242 -75 242 -4 0 -34 -16 -67 -35z m-53 -125 c37 -44 73 -185 66
-260 -8 -94 -45 -142 -96 -125 -39 12 -108 205 -113 315 -3 69 1 82 32 97 37
19 81 8 111 -27z m149 -532 c0 -56 -99 -128 -176 -128 -63 0 -88 82 -36 118
42 29 81 40 150 41 l62 1 0 -32z"/>
<path d="M5224 1440 c-27 -11 -54 -53 -54 -85 0 -37 16 -62 51 -80 25 -13 37
-14 65 -5 87 29 86 137 -2 170 -29 12 -32 12 -60 0z"/>
<path d="M4153 1375 c-32 -27 -16 -34 23 -9 13 9 27 15 29 12 3 -3 -30 -181
-74 -396 l-78 -392 76 0 77 0 22 116 c30 150 65 243 109 289 30 30 41 36 72
33 35 -3 36 -5 39 -45 2 -23 -9 -101 -23 -173 -31 -151 -28 -189 14 -220 38
-27 126 -27 160 -1 17 13 20 20 12 26 -7 4 -20 0 -30 -9 -23 -21 -41 -20 -41
2 0 9 7 49 16 87 40 184 45 223 35 263 -33 122 -190 152 -274 53 -33 -40 -33
-35 -2 119 37 184 33 225 -25 255 -45 23 -104 19 -137 -10z"/>
<path d="M5753 1294 c-43 -21 -61 -43 -83 -100 -11 -27 -19 -42 -20 -33 0 23
-42 58 -77 65 -38 7 -116 -25 -132 -54 -18 -33 7 -38 31 -7 26 33 33 24 42
-55 31 -265 47 -329 85 -350 48 -25 151 3 168 45 9 26 -6 30 -23 7 -30 -43
-40 -27 -54 91 -23 186 -12 286 35 333 30 30 70 31 85 4 6 -11 20 -87 31 -167
20 -154 36 -198 80 -221 55 -29 190 36 163 79 -4 6 -17 -3 -34 -22 l-27 -34
-11 70 c-6 39 -16 110 -22 160 -13 102 -30 145 -72 180 -35 30 -114 34 -165 9z"/>
<path d="M4847 1280 c-27 -5 -51 -11 -54 -13 -2 -3 -6 -31 -9 -63 -10 -120
-12 -124 -45 -124 -20 0 -29 -4 -26 -12 2 -8 16 -12 32 -10 l28 4 -6 -64 c-16
-170 -19 -277 -7 -312 30 -92 158 -113 240 -40 50 45 99 174 66 174 -8 0 -17
-15 -21 -37 -16 -89 -71 -151 -121 -139 l-27 7 7 167 c7 193 14 252 30 257 6
2 41 7 79 10 37 4 67 11 67 17 0 7 -27 8 -81 4 l-80 -7 5 33 c3 18 8 61 11 96
7 70 11 68 -88 52z"/>
<path d="M3043 1239 c-108 -53 -192 -221 -163 -327 11 -42 60 -95 103 -111 44
-17 99 -13 135 9 40 25 51 25 45 2 -6 -26 40 -78 83 -92 44 -15 104 -5 104 17
0 10 -5 13 -17 8 -37 -15 -53 -17 -53 -6 0 12 173 351 197 386 22 33 15 41
-47 53 -34 7 -67 15 -74 18 -8 3 -18 -7 -26 -25 l-12 -31 -22 43 c-13 27 -34
48 -56 59 -50 25 -143 24 -197 -3z m212 -44 c42 -41 37 -92 -20 -206 -47 -93
-101 -150 -162 -170 -43 -14 -83 8 -83 47 0 62 77 229 139 302 21 24 68 52 89
52 7 0 24 -11 37 -25z"/>
<path d="M5265 1158 c-38 -9 -82 -20 -97 -23 -16 -3 -28 -10 -28 -16 0 -6 12
-9 28 -7 l27 3 5 -190 c3 -104 9 -198 13 -207 31 -62 178 -63 201 -2 10 27 -2
30 -24 6 -12 -12 -25 -22 -30 -22 -6 0 -10 87 -11 223 0 122 -3 229 -7 237 -6
14 -15 13 -77 -2z"/>
<path d="M3670 1093 c-94 -49 -160 -165 -160 -280 0 -99 70 -168 183 -180 91
-9 150 11 202 70 29 31 42 54 36 60 -6 6 -23 -6 -47 -33 -48 -53 -82 -70 -139
-70 -90 0 -115 39 -95 147 17 92 33 135 71 189 58 84 140 109 196 59 l28 -24
-40 -1 c-53 -1 -85 -28 -92 -80 -5 -35 -2 -43 28 -71 28 -26 39 -30 69 -25
108 17 109 177 1 240 -23 13 -58 21 -110 24 -69 4 -81 1 -131 -25z"/>
</g>
</svg>
